<?xml version="1.0" encoding="UTF-8"?>
<svg xmlns="http://www.w3.org/2000/svg" xmlns:xlink="http://www.w3.org/1999/xlink" viewBox="0 0 32 32" width="32px" height="32px">
<g id="surface45598982">
<path style=" stroke:none;fill-rule:nonzero;fill:rgb(0%,87.450981%,100%);fill-opacity:1;" d="M 15.484375 3 C 15.484375 3 15.175781 14.949219 15.042969 19.855469 L 13.292969 17.292969 L 14.417969 20.386719 L 10.925781 20.894531 L 14.417969 21.402344 L 13.070312 24.046875 L 14.992188 22.027344 C 14.894531 25.867188 14.871094 26.808594 14.871094 26.808594 C 14.871094 26.808594 6.257812 22.8125 11.042969 13.972656 C 11.042969 13.972656 5.074219 7.382812 10.480469 3.332031 C 10.480469 3.332031 1.25 8.90625 7.105469 18.480469 C 7.105469 18.480469 2.265625 13.75 4.796875 8.96875 C 4.796875 8.96875 0.40625 15.160156 5.757812 21.972656 C 5.757812 21.972656 4.296875 21.074219 3 17.636719 C 3 17.636719 3.945312 27.863281 15.386719 27.996094 L 15.613281 27.996094 C 27.050781 27.867188 28 17.640625 28 17.640625 C 26.683594 21.070312 25.214844 21.972656 25.214844 21.972656 C 30.566406 15.164062 26.175781 8.96875 26.175781 8.96875 C 28.707031 13.757812 23.863281 18.480469 23.863281 18.480469 C 29.722656 8.914062 20.492188 3.335938 20.492188 3.335938 C 25.894531 7.390625 19.925781 13.972656 19.925781 13.972656 C 24.714844 22.8125 16.101562 26.8125 16.101562 26.8125 C 16.101562 26.8125 16.078125 25.871094 15.980469 22.03125 C 16.21875 22.28125 17.902344 24.050781 17.902344 24.050781 L 16.554688 21.40625 L 20.046875 20.898438 L 16.554688 20.390625 L 17.679688 17.296875 L 15.929688 19.855469 C 15.804688 14.960938 15.492188 3.101562 15.488281 3 Z M 15.484375 3 "/>
</g>
</svg>
